name D:\school\WTK\thesis\model\3dpredictsim\Results\MidTarsalJoint\Fal_s1_bCst_PF_Natali2010_ls150_MT_k250_d020_MTP_T5_ig24.mot
datacolumns 128
datarows 4
range 1.70349634 1.73756626
endheader
time	pelvis_tilt	pelvis_list	pelvis_rotation	pelvis_tx	pelvis_ty	pelvis_tz	hip_flexion_l	hip_adduction_l	hip_rotation_l	hip_flexion_r	hip_adduction_r	hip_rotation_r	knee_angle_l	knee_angle_r	ankle_angle_l	ankle_angle_r	subtalar_angle_l	subtalar_angle_r	mtj_angle_l	mtj_angle_r	mtp_angle_l	mtp_angle_r	lumbar_extension	lumbar_bending	lumbar_rotation	arm_flex_l	arm_add_l	arm_rot_l	arm_flex_r	arm_add_r	arm_rot_r	elbow_flex_l	elbow_flex_r	pro_sup_l	pro_sup_r	glut_med1_l/activation	glut_med2_l/activation	glut_med3_l/activation	glut_min1_l/activation	glut_min2_l/activation	glut_min3_l/activation	semimem_l/activation	semiten_l/activation	bifemlh_l/activation	bifemsh_l/activation	sar_l/activation	add_long_l/activation	add_brev_l/activation	add_mag1_l/activation	add_mag2_l/activation	add_mag3_l/activation	tfl_l/activation	pect_l/activation	grac_l/activation	glut_max1_l/activation	glut_max2_l/activation	glut_max3_l/activation	iliacus_l/activation	psoas_l/activation	quad_fem_l/activation	gem_l/activation	peri_l/activation	rect_fem_l/activation	vas_med_l/activation	vas_int_l/activation	vas_lat_l/activation	med_gas_l/activation	lat_gas_l/activation	soleus_l/activation	tib_post_l/activation	flex_dig_l/activation	flex_hal_l/activation	tib_ant_l/activation	per_brev_l/activation	per_long_l/activation	per_tert_l/activation	ext_dig_l/activation	ext_hal_l/activation	ercspn_l/activation	intobl_l/activation	extobl_l/activation	glut_med1_r/activation	glut_med2_r/activation	glut_med3_r/activation	glut_min1_r/activation	glut_min2_r/activation	glut_min3_r/activation	semimem_r/activation	semiten_r/activation	bifemlh_r/activation	bifemsh_r/activation	sar_r/activation	add_long_r/activation	add_brev_r/activation	add_mag1_r/activation	add_mag2_r/activation	add_mag3_r/activation	tfl_r/activation	pect_r/activation	grac_r/activation	glut_max1_r/activation	glut_max2_r/activation	glut_max3_r/activation	iliacus_r/activation	psoas_r/activation	quad_fem_r/activation	gem_r/activation	peri_r/activation	rect_fem_r/activation	vas_med_r/activation	vas_int_r/activation	vas_lat_r/activation	med_gas_r/activation	lat_gas_r/activation	soleus_r/activation	tib_post_r/activation	flex_dig_r/activation	flex_hal_r/activation	tib_ant_r/activation	per_brev_r/activation	per_long_r/activation	per_tert_r/activation	ext_dig_r/activation	ext_hal_r/activation	ercspn_r/activation	intobl_r/activation	extobl_r/activation	
          1.70349634	         -2.92524581	          2.44880114	         -5.77746642	          2.12937042	          0.91726683	          0.00112935	         28.23326085	          4.22656159	         -1.17349935	        -16.50020562	         -1.82180363	          6.22993924	        -11.85344492	        -11.52043444	          4.38053078	         -3.40082223	         -6.08079861	         10.39256950	         -0.13251795	          4.31770197	         -0.87717096	         12.82407362	         -1.53950301	         -0.77945762	          2.16153571	         -7.11036380	        -13.46765085	          4.87192432	          4.06986532	        -13.46185637	         16.02837170	         16.86593717	         37.55289515	         86.51662706	         86.51662706	          0.26403111	          0.05000015	          0.20835602	          0.05000080	          0.05000029	          0.18375949	          0.07248408	          0.05000210	          0.16190566	          0.05000026	          0.05000067	          0.08790956	          0.20621606	          0.18967275	          0.14920687	          0.12047012	          0.05000102	          0.05947758	          0.11350783	          0.05000037	          0.05000102	          0.10075912	          0.05868465	          0.05000172	          0.42065876	          0.11911204	          0.14752142	          0.05946408	          0.14917913	          0.14896249	          0.12800451	          0.05688240	          0.05837650	          0.05544905	          0.05946332	          0.05000239	          0.05000226	          0.45599497	          0.28088063	          0.16166549	          0.26620333	          0.53133583	          0.13847140	          0.05000004	          0.11895620	          0.08408554	          0.30842744	          0.07865216	          0.05946373	          0.22613470	          0.15412139	          0.08410056	          0.05000340	          0.05000100	          0.05000085	          0.05000025	          0.08368187	          0.11118158	          0.05946431	          0.05946385	          0.05944130	          0.05946188	          0.23727599	          0.06542772	          0.05001925	          0.05007308	          0.05007268	          0.05065913	          0.28929587	          0.55133369	          0.05072679	          0.05000220	          0.05000041	          0.16505227	          0.13755232	          0.09184422	          0.11864710	          0.21968549	          0.30127159	          0.27203275	          0.20886195	          0.19251112	          0.25704034	          0.05000003	          0.05001251	          0.16741386	          0.05000019	          0.05000005	          0.05000023	          0.05000036	          0.05946388	          0.05946387	
          1.71485298	         -2.91923472	          2.53450819	         -6.00205558	          2.14682388	          0.91641660	          0.00093902	         27.39765212	          4.47075770	         -0.90742730	        -16.30467881	         -2.11718374	          6.01032200	        -12.25147397	        -13.49863737	          3.80114030	         -4.16571616	         -6.48445113	         11.28592212	         -0.18874301	          3.20710656	         -0.84059954	         14.61729139	         -1.32443679	         -0.99354958	          2.21394458	         -7.99196563	        -13.47346230	          4.75795518	          3.70083552	        -13.46730463	         16.29126295	         16.52530260	         38.62404072	         86.51662706	         86.51662706	          0.32345246	          0.26542106	          0.31734791	          0.13172882	          0.19598592	          0.15452150	          0.06094811	          0.07886024	          0.13613791	          0.08293630	          0.05000864	          0.07391853	          0.17339617	          0.15948596	          0.12546054	          0.13876391	          0.05000082	          0.05001208	          0.09544346	          0.19831693	          0.14975970	          0.11173031	          0.05000013	          0.05000017	          0.35370966	          0.10015529	          0.12404344	          0.05000026	          0.12543700	          0.12525491	          0.10763236	          0.05000012	          0.05000023	          0.05000003	          0.05000006	          0.05000024	          0.05000029	          0.57522539	          0.33528420	          0.18024950	          0.55770997	          0.55579784	          0.24757613	          0.07163756	          0.10002436	          0.07070307	          0.30364177	          0.06613447	          0.05000026	          0.33245912	          0.12959264	          0.07071580	          0.05000390	          0.05000031	          0.05000026	          0.05000053	          0.07066043	          0.09348878	          0.05000081	          0.05000075	          0.05000110	          0.05000063	          0.22042635	          0.05502046	          0.05000098	          0.05000247	          0.05000142	          0.05000084	          0.24325406	          0.51931040	          0.05000020	          0.05000134	          0.05000072	          0.13878388	          0.11566361	          0.07722801	          0.12610889	          0.18472183	          0.25332326	          0.22873786	          0.17562097	          0.16187257	          0.21613172	          0.05000028	          0.08009736	          0.16949165	          0.05000040	          0.08675809	          0.05000056	          0.06513330	          0.05000003	          0.05000008	
          1.72620962	         -2.91160856	          2.60956185	         -6.19158261	          2.16425239	          0.91569627	          0.00071606	         26.57958239	          4.71258222	         -0.65183147	        -15.98797518	         -2.39405836	          5.80425744	        -12.69241320	        -15.62764462	          3.27387486	         -5.07085697	         -6.89566146	         12.11889569	         -0.21355152	          1.98458923	         -0.82824999	         16.32789903	         -1.12084447	         -1.20360095	          2.25764860	         -8.82867352	        -13.47731349	          4.70374504	          3.31642577	        -13.47853609	         16.52714225	         16.19728046	         39.62245480	         86.51662706	         86.51662706	          0.40945523	          0.35861479	          0.41736466	          0.17724070	          0.16479584	          0.24579179	          0.06947089	          0.08667134	          0.11607191	          0.06973684	          0.05000052	          0.06215441	          0.14581412	          0.20196232	          0.19805145	          0.16781450	          0.05000046	          0.05022415	          0.10015895	          0.25215002	          0.19288134	          0.16278901	          0.05000024	          0.05000021	          0.29741573	          0.08421554	          0.19998712	          0.05000013	          0.19920360	          0.20207335	          0.16927735	          0.05000008	          0.05000017	          0.05000003	          0.05000009	          0.05000080	          0.05000061	          0.64924582	          0.28192269	          0.15156223	          0.46895177	          0.57735126	          0.31035731	          0.08867298	          0.08410520	          0.05945047	          0.26338703	          0.05560902	          0.05000009	          0.27954778	          0.10896768	          0.05946127	          0.05000209	          0.05000029	          0.05000024	          0.05000021	          0.05941547	          0.13318271	          0.10236237	          0.05000567	          0.05000808	          0.05014348	          0.18534591	          0.05951424	          0.05000090	          0.05000246	          0.05000158	          0.05000106	          0.20453947	          0.47470547	          0.05000017	          0.05000058	          0.05000016	          0.11669601	          0.11335275	          0.11039891	          0.10603906	          0.15532276	          0.21300606	          0.19233349	          0.14767039	          0.13611023	          0.18173381	          0.11761491	          0.13391607	          0.14820168	          0.05001129	          0.16184210	          0.05002707	          0.08902084	          0.05000003	          0.05000008	
          1.73756626	         -2.90270672	          2.67821334	         -6.34916598	          2.18150726	          0.91517296	          0.00047025	         25.81075681	          4.96133339	         -0.39645997	        -15.52452404	         -2.64933931	          5.60345042	        -13.20041248	        -17.93453615	          2.74931647	         -6.06037169	         -7.30536803	         12.87232631	         -0.21423767	          0.70874816	         -0.81681044	         17.63116370	         -0.93569491	         -1.41340142	          2.29215360	         -9.59139024	        -13.47995794	          4.71122341	          2.95026052	        -13.48915715	         16.75870145	         15.86292787	         40.51199991	         86.51662706	         86.51662706	          0.49130360	          0.44999879	          0.47804313	          0.16434003	          0.24959370	          0.28765418	          0.06478819	          0.09502864	          0.09886149	          0.05863831	          0.05000050	          0.05226250	          0.12260754	          0.18446639	          0.23241766	          0.19393313	          0.05000040	          0.05000250	          0.08423139	          0.30853516	          0.23691080	          0.20278478	          0.05000010	          0.05000011	          0.25008117	          0.07081268	          0.16816127	          0.05000010	          0.28320412	          0.28630364	          0.23793948	          0.05000007	          0.05000018	          0.05000003	          0.10906397	          0.05006508	          0.05000279	          0.70546612	          0.23705385	          0.12744066	          0.39431684	          0.56317155	          0.32234695	          0.09566648	          0.07071960	          0.05000007	          0.22146828	          0.05000026	          0.05000015	          0.23505711	          0.09162527	          0.05000047	          0.05015028	          0.05000356	          0.05002170	          0.05000029	          0.05000127	          0.14916559	          0.21675213	          0.05000280	          0.05027405	          0.11298611	          0.16719369	          0.05004371	          0.05000140	          0.05000397	          0.05000287	          0.05000272	          0.17198640	          0.42659741	          0.05000024	          0.05000098	          0.05000029	          0.09812349	          0.09531249	          0.09282877	          0.08916274	          0.13060264	          0.17910548	          0.16172299	          0.12416829	          0.11444823	          0.15281056	          0.19350984	          0.11260339	          0.12461510	          0.19094050	          0.21685299	          0.10785288	          0.11163930	          0.05000004	          0.05000006	
